<?xml version="1.0" encoding="UTF-8" standalone="no"?>
<!-- Created with Inkscape (http://www.inkscape.org/) -->

<svg xmlns:dc="http://purl.org/dc/elements/1.1/" xmlns:cc="http://creativecommons.org/ns#" xmlns:rdf="http://www.w3.org/1999/02/22-rdf-syntax-ns#" xmlns:svg="http://www.w3.org/2000/svg" xmlns="http://www.w3.org/2000/svg" xmlns:sodipodi="http://sodipodi.sourceforge.net/DTD/sodipodi-0.dtd" xmlns:inkscape="http://www.inkscape.org/namespaces/inkscape" version="1.1" id="svg33" xml:space="preserve" width="826.66669" height="826.66669" viewBox="0 0 826.66669 826.66669" sodipodi:docname="diamond_token_small.svg" inkscape:version="0.92.4 5da689c313, 2019-01-14"><metadata id="metadata39"><rdf:RDF><cc:Work rdf:about=""><dc:format>image/svg+xml</dc:format><dc:type rdf:resource="http://purl.org/dc/dcmitype/StillImage" /><dc:title></dc:title></cc:Work></rdf:RDF></metadata><defs id="defs37"><clipPath clipPathUnits="userSpaceOnUse" id="clipPath49"><path d="M 0,620 H 620 V 0 H 0 Z" id="path47" inkscape:connector-curvature="0" /></clipPath><clipPath clipPathUnits="userSpaceOnUse" id="clipPath59"><path d="M -103.108,71.3218 H 103.108 V -71.3223 h -206.216 z" id="path57" inkscape:connector-curvature="0" /></clipPath><clipPath clipPathUnits="userSpaceOnUse" id="clipPath91"><path d="M -103.108,71.3218 H 103.108 V -71.3223 h -206.216 z" id="path89" inkscape:connector-curvature="0" /></clipPath><clipPath clipPathUnits="userSpaceOnUse" id="clipPath123"><path d="M -103.108,71.3218 H 103.108 V -71.3223 h -206.216 z" id="path121" inkscape:connector-curvature="0" /></clipPath><clipPath clipPathUnits="userSpaceOnUse" id="clipPath155"><path d="M -103.108,71.3218 H 103.108 V -71.3223 h -206.216 z" id="path153" inkscape:connector-curvature="0" /></clipPath><clipPath clipPathUnits="userSpaceOnUse" id="clipPath187"><path d="M -103.108,71.3218 H 103.108 V -71.3223 h -206.216 z" id="path185" inkscape:connector-curvature="0" /></clipPath><clipPath clipPathUnits="userSpaceOnUse" id="clipPath219"><path d="M -103.108,71.3218 H 103.108 V -71.3223 h -206.216 z" id="path217" inkscape:connector-curvature="0" /></clipPath><clipPath clipPathUnits="userSpaceOnUse" id="clipPath251"><path d="M -103.108,71.3218 H 103.108 V -71.3223 h -206.216 z" id="path249" inkscape:connector-curvature="0" /></clipPath><clipPath clipPathUnits="userSpaceOnUse" id="clipPath283"><path d="M -103.108,71.3218 H 103.108 V -71.3223 h -206.216 z" id="path281" inkscape:connector-curvature="0" /></clipPath></defs><sodipodi:namedview pagecolor="#ffffff" bordercolor="#666666" borderopacity="1" objecttolerance="10" gridtolerance="10" guidetolerance="10" inkscape:pageopacity="0" inkscape:pageshadow="2" inkscape:window-width="1920" inkscape:window-height="1016" id="namedview35" showgrid="false" inkscape:zoom="0.8074703" inkscape:cx="369.51935" inkscape:cy="362.58326" inkscape:window-x="0" inkscape:window-y="822" inkscape:window-maximized="1" inkscape:current-layer="layer1" /><g id="g41" inkscape:groupmode="layer" inkscape:label="ifttt-applet_logo-620x620" transform="matrix(1.3333333,0,0,-1.3333333,0,826.66667)" /><g inkscape:groupmode="layer" id="layer1" inkscape:label="ftf_logo"><path style="fill:#e6e6e6;stroke-width:1.05933571" d="M 258.17661,568.32082 103.33336,413.30834 258.17797,258.32085 413.02261,103.33335 568.17799,258.54241 723.33333,413.75146 568.70605,568.5424 c -85.04506,85.13507 -154.8656,154.79093 -155.15676,154.79093 -0.29119,0 -70.20887,-69.75559 -155.37268,-155.01251 z M 396.61172,477.43531 V 267.57407 h -33.35115 -33.35116 v -16.9585 -16.95848 h 83.64257 83.64259 v 16.95848 16.9585 H 463.31401 429.4335 V 477.69921 687.8244 l 64.49513,-64.6532 64.49515,-64.65314 -0.59571,-83.46755 -0.5957,-83.46754 h -54.37054 -54.37056 v -16.42852 -16.42853 h 54.52651 54.52648 v -18.01839 -18.01839 h -54.52648 -54.52651 v -16.42853 -16.42853 h 65.11416 c 35.81279,0 65.11415,-0.35887 65.11415,-0.79748 0,-0.43861 -37.16308,-37.99825 -82.58464,-83.46585 l -82.58466,-82.66836 -83.37619,83.46584 -83.37618,83.46585 h 65.37799 65.378 v 16.42853 16.42853 h -54.52646 -54.52649 v 18.01839 18.01839 h 54.52649 54.52646 v 16.42853 16.42852 h -54.52646 -54.52649 v 83.99424 83.99425 l 63.78741,63.86254 c 35.08308,35.1244 63.908,63.86254 64.05537,63.86254 0.1474,0 0.26799,-94.43752 0.26799,-209.86123 z M 647.80787,357.40474 c -30.71547,-30.75253 -56.2052,-55.9137 -56.64401,-55.9137 -0.43882,0 -0.79783,50.67504 -0.79783,112.61121 V 526.71349 L 647.01,470.01595 703.65413,413.31846 Z M 235.67919,413.04982 V 300.96858 l -56.10658,56.15942 -56.10658,56.15942 9.77729,10.0809 c 24.14211,24.89186 100.91819,101.76275 101.63723,101.76275 0.43925,0 0.79864,-50.43658 0.79864,-112.08125 z" id="path3875" inkscape:connector-curvature="0" inkscape:export-filename="/run/media/ivo/EXT-DATA/LOGO/PNG/diamond_token_small.png" inkscape:export-xdpi="96" inkscape:export-ydpi="96" /></g></svg>